<svg id="Шар_1" data-name="Шар 1" xmlns="http://www.w3.org/2000/svg" xmlns:xlink="http://www.w3.org/1999/xlink" viewBox="0 0 100 100"><defs><style>.cls-1{fill:url(#Градієнт_без_назви_13);}.cls-2{fill:url(#Градієнт_без_назви_18);}.cls-3{fill:url(#Градієнт_без_назви_21);}.cls-4{fill:url(#Градієнт_без_назви_25);}</style><linearGradient id="Градієнт_без_назви_13" x1="17.85987" y1="88.30311" x2="82.14013" y2="11.69689" gradientUnits="userSpaceOnUse"><stop offset="0" stop-color="#f2e2ff"/><stop offset="1" stop-color="#d8f0fb"/></linearGradient><linearGradient id="Градієнт_без_назви_18" x1="30" y1="40" x2="41" y2="29" gradientUnits="userSpaceOnUse"><stop offset="0" stop-color="#a260bf"/><stop offset="1" stop-color="#b956a6"/></linearGradient><linearGradient id="Градієнт_без_назви_21" x1="43.00161" y1="39.84793" x2="76.06548" y2="39.84793" gradientTransform="translate(50.90652 -31.2694) rotate(49.28761)" gradientUnits="userSpaceOnUse"><stop offset="0" stop-color="#a260bf"/><stop offset="1" stop-color="#da447e"/></linearGradient><linearGradient id="Градієнт_без_назви_25" x1="50" y1="86" x2="50" y2="56.9696" gradientUnits="userSpaceOnUse"><stop offset="0" stop-color="#7677f3"/><stop offset="1" stop-color="#9567ce"/></linearGradient></defs><title>logo</title><circle class="cls-1" cx="50" cy="50" r="50"/><path class="cls-2" d="M49,38S36,24,35,23s-5.5-2.5-9,1-1,8-1,8L40,50a7.73952,7.73952,0,0,1,1-3C42,45,49,38,49,38Z"/><rect class="cls-3" x="37.82858" y="32.99616" width="43.40994" height="13.70354" rx="6.85176" ry="6.85176" transform="translate(-9.50241 58.98265) rotate(-49.28761)"/><path class="cls-4" d="M43,80V57s3,4,7,4,7-3,7-4V80s-1,6-7,6S43,80,43,80Z"/></svg>